<?xml version="1.0" standalone="no"?>
<!DOCTYPE svg PUBLIC "-//W3C//DTD SVG 20010904//EN"
 "http://www.w3.org/TR/2001/REC-SVG-20010904/DTD/svg10.dtd">
<svg version="1.0" xmlns="http://www.w3.org/2000/svg"
 width="200.000000pt" height="200.000000pt" viewBox="0 0 200.000000 200.000000"
 preserveAspectRatio="xMidYMid meet">

<g transform="translate(0.000000,200.000000) scale(0.100000,-0.100000)"
fill="#000000" stroke="none">
<path d="M0 1000 l0 -1000 1000 0 1000 0 0 1000 0 1000 -1000 0 -1000 0 0
-1000z m1205 809 c149 -36 304 -125 411 -237 54 -56 138 -189 168 -263 65
-166 79 -355 37 -503 -75 -269 -262 -488 -500 -586 -124 -51 -195 -65 -326
-64 -197 2 -368 62 -516 182 -103 83 -171 168 -229 287 -113 229 -126 451 -41
671 74 190 227 361 406 451 165 84 398 108 590 62z"/>
<path d="M830 1756 c-164 -37 -270 -95 -387 -212 -80 -81 -98 -106 -142 -196
-67 -138 -81 -199 -81 -348 0 -147 15 -212 76 -335 82 -165 214 -299 367 -373
127 -61 192 -76 342 -76 120 0 137 3 224 32 128 44 221 101 311 191 164 163
240 342 240 563 0 297 -163 560 -425 688 -127 62 -209 80 -350 79 -66 -1 -145
-7 -175 -13z m227 -96 c-69 -29 -143 -78 -133 -87 3 -3 28 2 55 11 27 9 62 16
78 16 57 0 209 -33 254 -56 26 -13 68 -28 95 -35 55 -13 180 -67 173 -74 -3
-2 -32 7 -65 20 -32 14 -72 24 -89 24 l-30 0 36 -19 c66 -35 161 -175 146
-215 -6 -15 -10 -14 -37 5 -17 12 -37 19 -45 16 -8 -3 -43 12 -78 34 -60 36
-151 70 -186 70 -9 0 22 -16 68 -35 47 -19 102 -47 124 -62 62 -43 140 -128
168 -183 35 -69 23 -123 -15 -68 -18 26 -20 20 -6 -16 5 -14 6 -26 1 -26 -4 0
-14 -26 -21 -57 -7 -32 -21 -75 -31 -95 -11 -21 -19 -48 -19 -62 0 -68 -95
-294 -164 -391 -44 -61 -48 -47 -6 18 43 69 82 148 76 155 -3 3 -6 0 -6 -7 0
-7 -4 -10 -9 -6 -5 3 -12 1 -15 -3 -3 -5 -17 -7 -32 -4 -22 4 -25 8 -19 31 4
14 9 42 11 61 4 33 3 32 -27 -22 -66 -120 -184 -219 -329 -276 -68 -26 -92
-30 -97 -16 -2 6 21 22 52 34 105 43 211 123 266 202 17 24 7 18 -38 -25 -34
-31 -67 -58 -75 -58 -7 -1 -17 -2 -23 -3 -88 -16 -147 -16 -215 -1 -41 9 -91
20 -110 24 -28 6 -14 9 64 15 60 4 121 16 155 29 68 26 46 35 -41 17 -33 -6
-91 -11 -129 -11 -61 0 -74 4 -117 33 -87 59 -170 144 -217 223 -15 26 -13 25
16 -8 20 -22 45 -39 59 -41 15 -1 47 -17 73 -35 45 -31 156 -76 165 -67 2 3
-25 19 -59 37 -148 74 -185 118 -248 294 -24 66 -52 138 -62 160 l-20 40 5
-65 c3 -36 18 -102 34 -147 32 -90 25 -101 -12 -20 -44 98 -52 146 -46 282 l2
50 39 -84 c43 -92 109 -189 159 -236 36 -33 36 -34 -3 48 -37 78 -51 178 -37
256 12 65 64 196 107 271 34 58 114 160 125 160 10 0 -7 -36 -21 -44 -19 -12
-91 -145 -111 -206 -11 -36 -23 -99 -25 -140 l-5 -75 25 80 c34 109 90 219
126 250 38 31 179 97 195 91 7 -3 45 8 86 24 95 38 123 38 35 0z m609 -840 c4
-52 3 -94 -3 -105 -7 -12 -12 11 -16 86 -4 57 -9 124 -12 149 l-5 45 15 -44
c8 -24 17 -83 21 -131z m-1131 -60 c10 -11 14 -20 9 -20 -5 0 -15 9 -22 20 -7
11 -11 20 -9 20 2 0 12 -9 22 -20z"/>
<path d="M746 1389 c-21 -38 -32 -69 -26 -69 6 0 14 8 17 18 4 9 19 38 34 64
16 26 25 50 20 52 -4 3 -24 -26 -45 -65z"/>
<path d="M905 1391 c-104 -27 -194 -100 -240 -196 -44 -90 -45 -250 -2 -309
13 -18 16 -18 65 -2 28 10 77 34 110 55 l59 39 6 64 c7 76 57 171 110 212 41
31 110 62 160 71 20 4 37 11 37 15 0 4 -24 18 -52 30 -57 25 -195 36 -253 21z"/>
<path d="M1235 1110 c-22 -12 -59 -39 -82 -62 -35 -34 -43 -49 -43 -78 0 -65
-29 -139 -72 -186 -55 -60 -98 -84 -182 -104 l-71 -17 70 -34 c94 -45 177 -51
278 -18 63 20 80 31 138 89 49 50 72 83 89 126 48 127 17 296 -55 301 -16 2
-48 -6 -70 -17z"/>
</g>
</svg>
